# xmcd
#
# Track frame offsets: 
#        150
#        20148
#        36261
#        58877
#        76064
#        98499
#        111822
#        137235
#        151252
#        169523
#        184716
#        208990
#        229386
#
# Disc length: 3251 seconds
#
# Revision: 0
# Processed by: cddbd v1.5.2PL0 Copyright (c) Steve Scherf et al.
# Submitted via: ExactAudioCopy v1.3
#
DISCID=ad0cb10d
DTITLE=Cody Jinks - Less Wise Modified
DYEAR=2017
DGENRE=Country
TTITLE0=No Time
TTITLE1=Wake Up Becki
TTITLE2=Hippies and Cowboys
TTITLE3=65 Days In L. A.
TTITLE4=Somewhere In The Middle
TTITLE5=Been Around
TTITLE6=Last Call for The Blues
TTITLE7=Curse The Sky
TTITLE8=Loveletters and Cigarettes
TTITLE9=Less Wise
TTITLE10=Hippies and Cowboys (Alt Take)
TTITLE11=Somewhere In The Middle (Alt Take)
TTITLE12=Whiskey Bent And Hell Bound
EXTD=
EXTT0=
EXTT1=
EXTT2=
EXTT3=
EXTT4=
EXTT5=
EXTT6=
EXTT7=
EXTT8=
EXTT9=
EXTT10=
EXTT11=
EXTT12=
PLAYORDER=
